<svg width="430" height="320" viewBox="0 0 430 320" fill="none" xmlns="http://www.w3.org/2000/svg">
<path d="M133.6 99.6L115.7 105.6L131.1 106.4L150.3 100L133.6 99.6ZM84.7 154.6L97.1 192.4L111.1 199.8L97.8 159.1L84.7 154.6ZM78.8 101C78.5 100.2 78.3 99.4 78 98.6C77.7 97.8 77.5 96.9 77.2 96.1C76.9 95.2 76.7 94.4 76.4 93.5C76.1 92.6 75.8 91.7 75.6 90.7C75.3 89.8 75 88.8 74.8 87.8C74.5 86.8 74.2 85.9 74 84.9C73.7 83.9 73.5 83 73.2 82C72.9 81 72.7 80.1 72.4 79.1C72.1 78.1 71.9 77.1 71.6 76.2C71.3 75.2 71.1 74.3 70.8 73.3C70.5 72.3 70.3 71.4 70 70.4C69.7 69.4 69.5 68.5 69.2 67.5C68.9 66.5 68.7 65.6 68.4 64.7C68.2 63.8 67.9 62.9 67.7 62C67.5 61.1 67.2 60.3 67 59.4L66.4 57L55.5 59.8C55.7 60.5 55.9 61.3 56.1 62.1L56.7 64.5C56.9 65.3 57.1 66.1 57.4 67C57.7 67.9 57.9 68.7 58.1 69.6C58.3 70.5 58.6 71.4 58.8 72.3C59 73.2 59.3 74.1 59.5 75C59.7 75.9 60 76.8 60.2 77.7C60.4 78.6 60.7 79.5 60.9 80.4C61.1 81.3 61.4 82.2 61.7 83.1C62 84 62.2 84.9 62.5 85.8C62.8 86.7 63 87.6 63.3 88.5C63.6 89.4 63.8 90.3 64.1 91.2C64.4 92.1 64.6 92.9 64.9 93.8C65.2 94.6 65.4 95.5 65.7 96.3C65.9 97.1 66.2 97.9 66.4 98.6C66.6 99.4 66.9 100.1 67.1 100.8L73.4 120.1L44.6 129.8L54.6 132.4L85.6 122L78.8 101V101ZM27 27.3L2 146.8L12.7 179L20.3 185.5L8.79999 150.8L35.7 22L27 27.3Z" fill="#3A7199" stroke="#11497F" stroke-width="2.5" stroke-miterlimit="10" stroke-linecap="round" stroke-linejoin="round"/>
<path d="M131.1 106.4L150.3 99.9L162.4 137.1L143.2 143.6L156.4 184.2L111.2 199.8L97.8999 159.1L20.3999 185.5L8.8999 150.7L35.7999 21.9L97.2999 2L131.1 106.4ZM69.0999 67.5C68.7999 66.5 68.5999 65.6 68.2999 64.7C68.0999 63.8 67.7999 62.9 67.5999 62C67.3999 61.1 67.0999 60.3 66.8999 59.4L66.2999 57L65.1999 57.4C65.0999 59 64.9999 60.6 64.7999 62.2C64.6999 63.8 64.4999 65.4 64.3999 66.9C64.2999 68.5 64.0999 70 63.8999 71.6C63.6999 73.2 63.5999 74.7 63.3999 76.3C63.1999 77.9 62.9999 79.4 62.8999 81C62.6999 82.6 62.4999 84.2 62.2999 85.7L61.6999 90.5L61.0999 95.3L54.6999 132.1L85.6999 121.7L78.8999 100.9C78.5999 100.1 78.3999 99.3 78.0999 98.5C77.7999 97.7 77.5999 96.8 77.2999 96C76.9999 95.1 76.7999 94.3 76.4999 93.4C76.1999 92.5 75.8999 91.6 75.6999 90.6C75.3999 89.7 75.0999 88.7 74.8999 87.7C74.5999 86.7 74.2999 85.8 74.0999 84.8C73.7999 83.8 73.4999 82.9 73.2999 81.9C72.9999 80.9 72.7999 80 72.4999 79C72.1999 78 71.9999 77 71.6999 76.1C71.3999 75.1 71.1999 74.2 70.8999 73.2C70.5999 72.2 70.3999 71.3 70.0999 70.3C69.5999 69.4 69.2999 68.4 69.0999 67.5" fill="#67B1E0"/>
<path d="M69.0999 67.5C68.7999 66.5 68.5999 65.6 68.2999 64.7C68.0999 63.8 67.7999 62.9 67.5999 62C67.3999 61.1 67.0999 60.3 66.8999 59.4L66.2999 57L65.1999 57.4C65.0999 59 64.9999 60.6 64.7999 62.2C64.6999 63.8 64.4999 65.4 64.3999 66.9C64.2999 68.5 64.0999 70 63.8999 71.6C63.6999 73.2 63.5999 74.7 63.3999 76.3C63.1999 77.9 62.9999 79.4 62.8999 81C62.6999 82.6 62.4999 84.2 62.2999 85.7L61.6999 90.5L61.0999 95.3L54.6999 132.1L85.6999 121.7L78.8999 100.9C78.5999 100.1 78.3999 99.3 78.0999 98.5C77.7999 97.7 77.5999 96.8 77.2999 96C76.9999 95.1 76.7999 94.3 76.4999 93.4C76.1999 92.5 75.8999 91.6 75.6999 90.6C75.3999 89.7 75.0999 88.7 74.8999 87.7C74.5999 86.7 74.2999 85.8 74.0999 84.8C73.7999 83.8 73.4999 82.9 73.2999 81.9C72.9999 80.9 72.7999 80 72.4999 79C72.1999 78 71.9999 77 71.6999 76.1C71.3999 75.1 71.1999 74.2 70.8999 73.2C70.5999 72.2 70.3999 71.3 70.0999 70.3C69.5999 69.4 69.2999 68.4 69.0999 67.5M131.1 106.4L150.3 99.9L162.4 137.1L143.2 143.6L156.4 184.2L111.2 199.8L97.8999 159.1L20.3999 185.5L8.8999 150.7L35.7999 21.9L97.2999 2L131.1 106.4Z" stroke="#11497F" stroke-width="2.5" stroke-miterlimit="10" stroke-linecap="round" stroke-linejoin="round"/>
<path d="M254.4 131.1C254.3 129.2 254.1 127.3 253.9 125.6C253.7 123.9 253.5 122.2 253.2 120.7C252.9 119.2 252.7 117.8 252.3 116.4C252 115.1 251.6 113.9 251.2 112.8C250.8 111.7 250.4 110.7 249.9 109.7C249.4 108.8 249 107.9 248.4 107.2C247.9 106.4 247.3 105.8 246.7 105.2C246.1 104.6 245.5 104.1 244.9 103.7C244.3 103.3 243.6 103 242.9 102.6C242.2 102.3 241.5 102 240.9 101.8L238.8 101.2C238.1 101 237.3 100.9 236.6 100.9H222.3H223.9L226 101.2C226.7 101.3 227.3 101.5 228 101.7C228.6 101.9 229.3 102.2 229.9 102.5C230.5 102.8 231.1 103.1 231.7 103.5C232.3 103.9 232.9 104.3 233.4 104.8C233.9 105.3 234.5 105.9 234.9 106.6C235.4 107.3 235.8 108.1 236.3 108.9C236.7 109.8 237.1 110.7 237.5 111.7C237.9 112.7 238.2 113.9 238.5 115.1C238.8 116.3 239.1 117.6 239.3 119.1C239.5 120.5 239.7 122 239.9 123.6C240.1 125.2 240.2 126.9 240.3 128.7C240.4 130.5 240.5 132.5 240.5 134.5C240.5 136.6 240.5 138.8 240.4 141.2C240.3 143.6 240.2 146.1 240 148.8C239.8 151.5 239.6 154.3 239.3 157.2C239 160.1 238.7 162.9 238.4 165.6C238.1 168.3 237.7 170.8 237.4 173.1C237 175.5 236.6 177.7 236.2 179.8C235.8 181.9 235.4 183.8 234.9 185.6C234.4 187.4 234 189.1 233.5 190.7C233 192.3 232.5 193.8 232 195.2C231.5 196.6 231 197.9 230.4 199.1C229.9 200.3 229.3 201.4 228.8 202.4C228.5 202.9 228.3 203.3 228 203.8C227.9 203.9 227.8 204.1 227.7 204.2C227.5 204.5 227.3 204.8 227.1 205C227 205.2 226.9 205.3 226.8 205.5C226.6 205.7 226.5 206 226.3 206.2C226.2 206.3 226.1 206.5 225.9 206.6C225.7 206.8 225.6 207 225.4 207.2L225 207.6L224.5 208.1C224.4 208.2 224.2 208.3 224.1 208.4C223.9 208.5 223.8 208.7 223.6 208.8C223.5 208.9 223.3 209 223.2 209.1C223 209.2 222.9 209.3 222.7 209.4C222.6 209.5 222.4 209.6 222.3 209.6C222 209.8 221.8 209.9 221.5 210C220.9 210.3 220.2 210.5 219.5 210.7H219.4C218.8 210.9 218.1 211.1 217.5 211.2H217.4C216.8 211.3 216.1 211.4 215.5 211.4H213.4C212.7 211.3 212.1 211.2 211.4 211.1H211.3C210.7 211 210 210.8 209.4 210.6H209.3C208.7 210.4 208.1 210.1 207.5 209.8C206.9 209.5 206.3 209.1 205.7 208.7C205.7 208.7 205.6 208.7 205.6 208.6C205.6 208.6 205.5 208.6 205.5 208.5C205.5 208.5 205.4 208.5 205.4 208.4C205.4 208.4 205.3 208.4 205.3 208.3L216.3 216.6L216.4 216.7L216.5 216.8C216.5 216.8 216.6 216.8 216.6 216.9C216.6 216.9 216.7 216.9 216.7 217C217 217.2 217.3 217.4 217.7 217.6C218 217.8 218.3 218 218.7 218.1C219 218.3 219.3 218.4 219.6 218.5C219.9 218.6 220.3 218.8 220.6 218.9H220.8L221.7 219.2C222 219.3 222.4 219.4 222.8 219.5H223C223.3 219.6 223.6 219.6 223.9 219.7C224.3 219.8 224.6 219.8 225 219.8H227.4C227.7 219.8 227.9 219.8 228.2 219.7C228.5 219.7 228.7 219.6 229 219.6C229.1 219.6 229.2 219.6 229.3 219.5H229.5C229.6 219.5 229.7 219.5 229.8 219.4C230.1 219.3 230.3 219.3 230.6 219.2C230.9 219.1 231.1 219.1 231.4 219C231.5 219 231.5 219 231.6 218.9C231.7 218.9 231.8 218.8 231.9 218.8C232.1 218.7 232.3 218.7 232.5 218.6C232.7 218.5 232.9 218.4 233.1 218.4L233.7 218.1C233.8 218.1 233.8 218 233.9 218C234 218 234 217.9 234.1 217.9C234.2 217.9 234.2 217.8 234.3 217.8C234.4 217.8 234.4 217.7 234.5 217.7C234.6 217.7 234.6 217.6 234.7 217.6C234.8 217.5 235 217.4 235.1 217.3C235.3 217.2 235.5 217.1 235.7 216.9C235.8 216.9 235.8 216.8 235.9 216.8C236 216.7 236.1 216.7 236.1 216.6C236.2 216.5 236.3 216.5 236.4 216.4C236.5 216.3 236.6 216.2 236.7 216.2C236.8 216.1 237 216 237.1 215.8C237.3 215.6 237.5 215.5 237.6 215.3L237.9 215C238 214.9 238 214.9 238 214.8L238.2 214.6C238.3 214.5 238.4 214.3 238.6 214.2C238.7 214 238.9 213.9 239 213.7C239.2 213.5 239.4 213.2 239.6 213C239.7 212.9 239.8 212.8 239.9 212.6C239.9 212.6 239.9 212.5 240 212.5L240.1 212.4C240.3 212.2 240.4 211.9 240.6 211.6C240.7 211.4 240.8 211.3 240.9 211.1L241.8 209.6C242.4 208.5 243 207.4 243.6 206.1C244.2 204.8 244.7 203.4 245.3 201.9C245.8 200.4 246.4 198.8 246.9 197.1C247.4 195.4 247.9 193.6 248.4 191.6C248.9 189.7 249.4 187.6 249.8 185.3C250.2 183 250.7 180.7 251.1 178.1C251.5 175.5 251.9 172.8 252.2 170C252.6 167.1 252.9 164.1 253.2 161C253.5 157.8 253.8 154.8 254 152C254.2 149.1 254.3 146.4 254.4 143.9C254.5 141.3 254.5 138.9 254.5 136.7C254.6 135.1 254.5 133 254.4 131.1V131.1ZM189.8 77.3999C190.5 76.7999 191.1 76.1999 191.8 75.5999C192 75.3999 192.2 75.1999 192.4 75.0999C193.2 74.3999 194.1 73.6999 195 72.9999C195.2 72.8999 195.4 72.6999 195.6 72.5999C196.3 72.0999 197 71.4999 197.8 70.9999C198.1 70.7999 198.3 70.5999 198.6 70.4999C199.4 69.9999 200.3 69.3999 201.1 68.8999C201.2 68.7999 201.3 68.8 201.4 68.7C202.4 68.1 203.3 67.5999 204.3 67.0999C204.5 66.9999 204.6 66.9 204.8 66.8C205.7 66.3 206.7 65.8999 207.7 65.4999C207.8 65.3999 208 65.4 208.1 65.3C209.1 64.9 210.1 64.3999 211.2 64.0999C211.6 63.8999 212.1 63.7999 212.5 63.5999C212.6 63.5999 212.7 63.4999 212.9 63.4999C213.3 63.3999 213.7 63.1999 214.1 63.0999C214.2 63.0999 214.2 63.0999 214.3 62.9999C214.8 62.8999 215.3 62.6999 215.8 62.5999H215.9C216.4 62.4999 216.9 62.3 217.4 62.2L206.3 64.8999C206.2 64.8999 206 64.9999 205.9 64.9999C205.8 64.9999 205.6 65.0999 205.5 65.0999C205.4 65.0999 205.2 65.2 205.1 65.2H205C204.9 65.2 204.8 65.3 204.7 65.3C204.4 65.4 204 65.4999 203.7 65.5999H203.6H203.5C203.3 65.6999 203 65.7 202.8 65.8C202.7 65.8 202.6 65.8999 202.4 65.8999C202.3 65.8999 202.3 65.8999 202.2 65.9999C202.1 65.9999 202.1 65.9999 202 66.0999C201.9 66.0999 201.8 66.2 201.7 66.2C201.4 66.3 201.1 66.3999 200.7 66.4999C200.1 66.6999 199.5 66.9 198.9 67.2C198.5 67.4 198.2 67.5 197.8 67.7C197.7 67.8 197.6 67.7999 197.4 67.8999C197.3 67.8999 197.2 67.9999 197.1 67.9999C196.5 68.2999 196 68.5 195.4 68.8C195.2 68.9 194.9 69 194.7 69.2C194.6 69.2 194.5 69.3 194.4 69.3C194.3 69.3 194.3 69.3999 194.2 69.3999C194 69.4999 193.9 69.6 193.7 69.7C193 70.1 192.2 70.4999 191.5 70.8999C191.4 70.9999 191.3 70.9999 191.2 71.0999C190.6 71.4999 190 71.8 189.4 72.2C189.2 72.3 189 72.4999 188.8 72.5999C188.7 72.6999 188.6 72.7 188.5 72.8C188.4 72.9 188.2 72.9999 188.1 73.0999C187.4 73.5999 186.8 73.9999 186.1 74.4999C185.9 74.5999 185.7 74.7999 185.6 74.8999C185.5 74.9999 185.5 74.9999 185.4 74.9999C184.7 75.5999 183.9 76.2 183.2 76.8C183.1 76.8 183.1 76.8999 183 76.8999C182.9 76.9999 182.7 77.1 182.6 77.3C182.2 77.6 181.9 77.9 181.5 78.3C181.2 78.5 181 78.7999 180.7 78.9999C180.5 79.1999 180.3 79.3999 180 79.5999C179.2 80.2999 178.5 81.0999 177.7 81.8999C176 83.6999 174.5 85.5999 172.9 87.5999C171.4 89.5999 169.9 91.7999 168.6 94.0999C167.2 96.3999 165.9 98.7999 164.7 101.4C163.5 104 162.3 106.7 161.3 109.5C160.2 112.3 159.2 115.3 158.3 118.4C157.4 121.5 156.6 124.7 155.9 128C155.2 131.3 154.6 134.8 154 138.4C153.5 142 153 145.7 152.7 149.5C152.3 153.3 152.1 157 152 160.7C151.9 164.3 151.8 167.8 151.9 171.2C152 174.6 152.2 177.9 152.5 181.1C152.8 184.3 153.2 187.4 153.8 190.4C154.3 193.4 155 196.3 155.7 199C156.4 201.8 157.2 204.4 158.1 207C159 209.5 160 212 161.1 214.3C162.2 216.6 163.4 218.8 164.7 220.9C165.1 221.6 165.6 222.3 166 223C166.4 223.7 166.9 224.3 167.4 225C167.9 225.7 168.3 226.3 168.8 226.9L170.3 228.7L178.6 238.6C178.1 238 177.5 237.3 177 236.6C176.5 235.9 176 235.3 175.5 234.6L174 232.5C173.5 231.8 173 231 172.6 230.3C171.2 228 169.9 225.7 168.7 223.2C167.5 220.7 166.4 218.1 165.5 215.4C164.5 212.7 163.6 209.8 162.9 206.8C162.1 203.8 161.5 200.7 160.9 197.5C160.3 194.3 159.9 191 159.6 187.5C159.3 184.1 159.1 180.5 159 176.8C158.9 173.1 158.9 169.3 159.1 165.5C159.2 161.6 159.5 157.6 159.9 153.5C160.3 149.4 160.8 145.4 161.3 141.5C161.9 137.6 162.6 133.9 163.3 130.3C164.1 126.7 164.9 123.3 165.9 119.9C166.9 116.6 167.9 113.4 169.1 110.3C170.3 107.2 171.5 104.3 172.8 101.6C174.1 98.7999 175.5 96.2 177 93.7C178.5 91.2 180 88.9 181.7 86.7C183.3 84.5 185 82.4999 186.8 80.5999C187.6 79.6999 188.4 78.8999 189.2 78.0999C189.4 77.7999 189.6 77.5999 189.8 77.3999V77.3999Z" fill="#3A7199" stroke="#11497F" stroke-width="2.5" stroke-miterlimit="10" stroke-linecap="round" stroke-linejoin="round"/>
<path d="M300.5 122.9C301 126 301.5 129.3 301.8 132.7C302.1 136.1 302.3 139.6 302.4 143.1C302.5 146.7 302.4 150.4 302.3 154.2C302.1 158 301.9 162 301.5 166C301.1 170.1 300.6 174 300 177.8C299.4 181.6 298.7 185.3 298 188.8C297.2 192.3 296.4 195.7 295.4 199C294.4 202.3 293.4 205.4 292.3 208.5C291.2 211.5 289.9 214.4 288.7 217.2C287.4 220 286 222.6 284.6 225.1C283.2 227.6 281.6 230 280 232.2C278.4 234.4 276.7 236.5 275 238.5C273.2 240.5 271.4 242.3 269.5 244C267.6 245.7 265.7 247.3 263.7 248.7C261.7 250.1 259.6 251.4 257.5 252.6C255.4 253.8 253.2 254.8 250.9 255.7C248.6 256.6 246.3 257.4 244 258C241.7 258.6 239.3 259.1 236.8 259.5C234.4 259.8 231.9 260.1 229.4 260.1C226.9 260.2 224.3 260.1 221.7 259.9C219.1 259.7 216.5 259.4 214 258.9C211.5 258.4 209.1 257.8 206.7 257.1C204.3 256.4 202.1 255.5 199.9 254.5C197.7 253.5 195.6 252.4 193.5 251.1C191.4 249.8 189.5 248.5 187.6 247C185.7 245.5 183.9 243.9 182.2 242.1C180.5 240.3 178.8 238.5 177.3 236.5C175.7 234.5 174.3 232.4 172.9 230.1C171.5 227.8 170.2 225.5 169 223C167.8 220.5 166.7 217.9 165.8 215.2C164.8 212.5 163.9 209.6 163.2 206.6C162.4 203.6 161.8 200.5 161.2 197.3C160.6 194.1 160.2 190.8 159.9 187.3C159.6 183.9 159.4 180.3 159.3 176.6C159.2 172.9 159.2 169.1 159.4 165.3C159.5 161.4 159.8 157.4 160.2 153.3C160.6 149.2 161.1 145.2 161.6 141.3C162.2 137.4 162.9 133.7 163.6 130.1C164.4 126.5 165.2 123.1 166.2 119.7C167.2 116.4 168.2 113.2 169.4 110.1C170.6 107 171.8 104.1 173.1 101.4C174.4 98.6 175.8 96 177.3 93.5C178.8 91 180.3 88.7 182 86.5C183.6 84.3 185.3 82.3 187.1 80.4C188.9 78.5 190.7 76.7 192.6 75.1C194.5 73.5 196.5 72 198.5 70.6C200.5 69.2 202.6 68 204.8 66.9C206.9 65.8 209.2 64.8 211.4 64C213.7 63.2 216 62.5 218.3 61.9C220.7 61.4 223.1 60.9 225.5 60.7C228 60.4 230.5 60.3 233 60.3C235.6 60.3 238.2 60.4 240.8 60.7C243.4 61 245.9 61.4 248.4 61.9C250.9 62.4 253.3 63.1 255.6 63.8C257.9 64.6 260.2 65.4 262.4 66.5C264.6 67.5 266.7 68.6 268.8 69.9C270.9 71.2 272.8 72.5 274.7 74C276.6 75.5 278.4 77.1 280.1 78.8C281.8 80.5 283.4 82.4 285 84.4C286.5 86.4 288 88.5 289.3 90.7C290.7 92.9 291.9 95.3 293.1 97.7C294.3 100.1 295.3 102.7 296.3 105.4C297.2 108.1 298.1 110.9 298.8 113.8C299.3 116.8 299.9 119.8 300.5 122.9V122.9ZM248.5 192.4C249 190.5 249.5 188.4 249.9 186.1C250.3 183.9 250.8 181.5 251.2 178.9C251.6 176.3 252 173.6 252.3 170.8C252.7 167.9 253 164.9 253.3 161.8C253.6 158.6 253.9 155.6 254.1 152.8C254.3 149.9 254.4 147.2 254.5 144.7C254.6 142.1 254.6 139.7 254.6 137.5C254.6 135.2 254.5 133.2 254.4 131.2C254.3 129.3 254.1 127.4 253.9 125.7C253.7 124 253.5 122.3 253.2 120.8C252.9 119.3 252.7 117.9 252.3 116.5C252 115.2 251.6 114 251.2 112.9C250.8 111.8 250.4 110.8 249.9 109.8C249.4 108.9 249 108 248.4 107.3C247.9 106.5 247.3 105.9 246.7 105.3C246.1 104.7 245.5 104.2 244.9 103.8C244.3 103.4 243.6 103.1 242.9 102.7C242.2 102.4 241.5 102.1 240.9 101.9L238.8 101.3C238.1 101.1 237.3 101 236.6 101C235.8 100.9 235.1 100.9 234.4 100.9C233.7 100.9 232.9 101 232.2 101.1C231.5 101.2 230.7 101.3 230 101.5C229.3 101.7 228.6 101.9 227.9 102.2C227.2 102.5 226.5 102.8 225.8 103.3C225.1 103.8 224.4 104.3 223.8 104.9C223.1 105.5 222.5 106.3 221.9 107.1C221.3 107.9 220.7 108.8 220.1 109.9C219.5 110.9 218.9 112 218.3 113.3C217.7 114.5 217.2 115.9 216.6 117.3C216.1 118.8 215.5 120.3 215 122C214.5 123.7 214 125.5 213.5 127.4C213 129.3 212.6 131.4 212.1 133.6C211.7 135.8 211.2 138.2 210.9 140.7C210.5 143.2 210.1 145.9 209.8 148.8C209.5 151.7 209.1 154.7 208.8 157.9C208.5 161.1 208.2 164.1 208 167C207.8 169.9 207.7 172.6 207.6 175.2C207.5 177.8 207.5 180.2 207.5 182.5C207.5 184.8 207.6 186.9 207.7 188.9C207.8 190.9 208 192.8 208.1 194.6C208.3 196.4 208.5 198.1 208.8 199.6C209.1 201.2 209.3 202.6 209.7 204C210 205.4 210.4 206.6 210.8 207.8C211.2 209 211.6 210 212.1 211C212.6 212 213 212.9 213.6 213.6C214.1 214.4 214.7 215.1 215.2 215.7C215.8 216.3 216.4 216.8 217 217.3C217.6 217.7 218.3 218.1 219 218.5C219.7 218.8 220.3 219.1 221 219.4L223.1 220C223.8 220.2 224.6 220.3 225.3 220.3C226 220.4 226.8 220.4 227.5 220.3C228.2 220.3 229 220.2 229.7 220.1C230.4 220 231.2 219.8 231.9 219.6C232.6 219.4 233.3 219.1 234 218.8C234.7 218.5 235.4 218.1 236.1 217.6C236.8 217.1 237.5 216.5 238.1 215.8C238.8 215.1 239.4 214.3 240 213.4C240.6 212.5 241.2 211.6 241.8 210.5C242.4 209.4 243 208.3 243.6 207C244.2 205.7 244.7 204.3 245.3 202.8C245.8 201.3 246.4 199.7 246.9 198C247.5 196.1 248 194.3 248.5 192.4" fill="#67B1E0"/>
<path d="M248.5 192.4C249 190.5 249.5 188.4 249.9 186.1C250.3 183.9 250.8 181.5 251.2 178.9C251.6 176.3 252 173.6 252.3 170.8C252.7 167.9 253 164.9 253.3 161.8C253.6 158.6 253.9 155.6 254.1 152.8C254.3 149.9 254.4 147.2 254.5 144.7C254.6 142.1 254.6 139.7 254.6 137.5C254.6 135.2 254.5 133.2 254.4 131.2C254.3 129.3 254.1 127.4 253.9 125.7C253.7 124 253.5 122.3 253.2 120.8C252.9 119.3 252.7 117.9 252.3 116.5C252 115.2 251.6 114 251.2 112.9C250.8 111.8 250.4 110.8 249.9 109.8C249.4 108.9 249 108 248.4 107.3C247.9 106.5 247.3 105.9 246.7 105.3C246.1 104.7 245.5 104.2 244.9 103.8C244.3 103.4 243.6 103.1 242.9 102.7C242.2 102.4 241.5 102.1 240.9 101.9L238.8 101.3C238.1 101.1 237.3 101 236.6 101C235.8 100.9 235.1 100.9 234.4 100.9C233.7 100.9 232.9 101 232.2 101.1C231.5 101.2 230.7 101.3 230 101.5C229.3 101.7 228.6 101.9 227.9 102.2C227.2 102.5 226.5 102.8 225.8 103.3C225.1 103.8 224.4 104.3 223.8 104.9C223.1 105.5 222.5 106.3 221.9 107.1C221.3 107.9 220.7 108.8 220.1 109.9C219.5 110.9 218.9 112 218.3 113.3C217.7 114.5 217.2 115.9 216.6 117.3C216.1 118.8 215.5 120.3 215 122C214.5 123.7 214 125.5 213.5 127.4C213 129.3 212.6 131.4 212.1 133.6C211.7 135.8 211.2 138.2 210.9 140.7C210.5 143.2 210.1 145.9 209.8 148.8C209.5 151.7 209.1 154.7 208.8 157.9C208.5 161.1 208.2 164.1 208 167C207.8 169.9 207.7 172.6 207.6 175.2C207.5 177.8 207.5 180.2 207.5 182.5C207.5 184.8 207.6 186.9 207.7 188.9C207.8 190.9 208 192.8 208.1 194.6C208.3 196.4 208.5 198.1 208.8 199.6C209.1 201.2 209.3 202.6 209.7 204C210 205.4 210.4 206.6 210.8 207.8C211.2 209 211.6 210 212.1 211C212.6 212 213 212.9 213.6 213.6C214.1 214.4 214.7 215.1 215.2 215.7C215.8 216.3 216.4 216.8 217 217.3C217.6 217.7 218.3 218.1 219 218.5C219.7 218.8 220.3 219.1 221 219.4L223.1 220C223.8 220.2 224.6 220.3 225.3 220.3C226 220.4 226.8 220.4 227.5 220.3C228.2 220.3 229 220.2 229.7 220.1C230.4 220 231.2 219.8 231.9 219.6C232.6 219.4 233.3 219.1 234 218.8C234.7 218.5 235.4 218.1 236.1 217.6C236.8 217.1 237.5 216.5 238.1 215.8C238.8 215.1 239.4 214.3 240 213.4C240.6 212.5 241.2 211.6 241.8 210.5C242.4 209.4 243 208.3 243.6 207C244.2 205.7 244.7 204.3 245.3 202.8C245.8 201.3 246.4 199.7 246.9 198C247.5 196.1 248 194.3 248.5 192.4M300.5 122.9C301 126 301.5 129.3 301.8 132.7C302.1 136.1 302.3 139.6 302.4 143.1C302.5 146.7 302.4 150.4 302.3 154.2C302.1 158 301.9 162 301.5 166C301.1 170.1 300.6 174 300 177.8C299.4 181.6 298.7 185.3 298 188.8C297.2 192.3 296.4 195.7 295.4 199C294.4 202.3 293.4 205.4 292.3 208.5C291.2 211.5 289.9 214.4 288.7 217.2C287.4 220 286 222.6 284.6 225.1C283.2 227.6 281.6 230 280 232.2C278.4 234.4 276.7 236.5 275 238.5C273.2 240.5 271.4 242.3 269.5 244C267.6 245.7 265.7 247.3 263.7 248.7C261.7 250.1 259.6 251.4 257.5 252.6C255.4 253.8 253.2 254.8 250.9 255.7C248.6 256.6 246.3 257.4 244 258C241.7 258.6 239.3 259.1 236.8 259.5C234.4 259.8 231.9 260.1 229.4 260.1C226.9 260.2 224.3 260.1 221.7 259.9C219.1 259.7 216.5 259.4 214 258.9C211.5 258.4 209.1 257.8 206.7 257.1C204.3 256.4 202.1 255.5 199.9 254.5C197.7 253.5 195.6 252.4 193.5 251.1C191.4 249.8 189.5 248.5 187.6 247C185.7 245.5 183.9 243.9 182.2 242.1C180.5 240.3 178.8 238.5 177.3 236.5C175.7 234.5 174.3 232.4 172.9 230.1C171.5 227.8 170.2 225.5 169 223C167.8 220.5 166.7 217.9 165.8 215.2C164.8 212.5 163.9 209.6 163.2 206.6C162.4 203.6 161.8 200.5 161.2 197.3C160.6 194.1 160.2 190.8 159.9 187.3C159.6 183.9 159.4 180.3 159.3 176.6C159.2 172.9 159.2 169.1 159.4 165.3C159.5 161.4 159.8 157.4 160.2 153.3C160.6 149.2 161.1 145.2 161.6 141.3C162.2 137.4 162.9 133.7 163.6 130.1C164.4 126.5 165.2 123.1 166.2 119.7C167.2 116.4 168.2 113.2 169.4 110.1C170.6 107 171.8 104.1 173.1 101.4C174.4 98.6 175.8 96 177.3 93.5C178.8 91 180.3 88.7 182 86.5C183.6 84.3 185.3 82.3 187.1 80.4C188.9 78.5 190.7 76.7 192.6 75.1C194.5 73.5 196.5 72 198.5 70.6C200.5 69.2 202.6 68 204.8 66.9C206.9 65.8 209.2 64.8 211.4 64C213.7 63.2 216 62.5 218.3 61.9C220.7 61.4 223.1 60.9 225.5 60.7C228 60.4 230.5 60.3 233 60.3C235.6 60.3 238.2 60.4 240.8 60.7C243.4 61 245.9 61.4 248.4 61.9C250.9 62.4 253.3 63.1 255.6 63.8C257.9 64.6 260.2 65.4 262.4 66.5C264.6 67.5 266.7 68.6 268.8 69.9C270.9 71.2 272.8 72.5 274.7 74C276.6 75.5 278.4 77.1 280.1 78.8C281.8 80.5 283.4 82.4 285 84.4C286.5 86.4 288 88.5 289.3 90.7C290.7 92.9 291.9 95.3 293.1 97.7C294.3 100.1 295.3 102.7 296.3 105.4C297.2 108.1 298.1 110.9 298.8 113.8C299.3 116.8 299.9 119.8 300.5 122.9V122.9Z" stroke="#11497F" stroke-width="2.5" stroke-miterlimit="10" stroke-linecap="round" stroke-linejoin="round"/>
<path d="M413 232.4L394.3 229.6L407.7 237.3L427.8 240.2L413 232.4ZM344.6 259.4L338.6 298.7L347.8 311.7L354.2 269.3L344.6 259.4ZM363.5 208.8C363.6 208 363.8 207.2 363.9 206.3C364 205.5 364.2 204.6 364.3 203.7C364.4 202.8 364.6 201.9 364.8 201C365 200.1 365.1 199.1 365.3 198.1C365.5 197.1 365.7 196.2 365.8 195.2C366 194.2 366.2 193.2 366.4 192.3L367 189.3L367.6 186.3L368.2 183.3L368.8 180.3C369 179.3 369.2 178.3 369.4 177.4C369.6 176.4 369.8 175.4 370 174.5C370.2 173.5 370.4 172.6 370.6 171.7L371.2 169C371.4 168.1 371.6 167.3 371.8 166.4C372 165.6 372.2 164.7 372.3 163.9L361.4 161.5C361.2 162.2 361.1 163 360.9 163.8C360.7 164.6 360.6 165.4 360.4 166.2C360.2 167 360.1 167.9 359.9 168.7C359.7 169.6 359.5 170.4 359.4 171.3L358.8 174L358.2 176.7L357.6 179.4C357.4 180.3 357.2 181.2 357 182.2C356.8 183.1 356.6 184 356.4 185C356.2 185.9 356 186.8 355.9 187.8C355.7 188.7 355.6 189.6 355.4 190.5C355.2 191.4 355.1 192.3 354.9 193.2C354.7 194.1 354.6 195 354.4 195.8C354.3 196.7 354.1 197.5 354 198.3C353.9 199.1 353.7 199.9 353.6 200.7C353.5 201.5 353.4 202.2 353.2 203L350.1 223.1L320.1 218.7L327.9 225.6L360.2 230.3L363.5 208.8V208.8ZM350.6 119.7L274.3 215L269.3 248.7L273.1 257.9L278.6 221.7L360.7 118.9L350.6 119.7Z" fill="#3A7199" stroke="#11497F" stroke-width="2.5" stroke-miterlimit="10" stroke-linecap="round" stroke-linejoin="round"/>
<path d="M407.7 237.3L427.8 240.2L421.8 278.8L401.8 276L395.3 318.1L347.9 311.6L354.4 269.3L273.3 257.9L278.7 221.7L360.9 118.9L424.7 128.8L407.7 237.3ZM370 174.5C370.2 173.5 370.4 172.6 370.6 171.7L371.2 169C371.4 168.1 371.6 167.3 371.8 166.4C372 165.6 372.2 164.7 372.3 163.9L371.1 163.7C370.3 165.1 369.5 166.4 368.6 167.8C367.7 169.2 366.9 170.5 366.1 171.8C365.3 173.1 364.4 174.5 363.6 175.8C362.7 177.1 361.9 178.4 361 179.8C360.1 181.1 359.3 182.4 358.4 183.7C357.5 185 356.6 186.3 355.7 187.7C354.8 189.1 353.9 190.4 353 191.7C352.1 193 351.2 194.4 350.3 195.7L328 225.6L360.3 230.3L363.6 208.7C363.7 207.9 363.9 207.1 364 206.2C364.1 205.4 364.3 204.5 364.4 203.6C364.5 202.7 364.7 201.8 364.9 200.9C365.1 200 365.2 199 365.4 198C365.6 197 365.8 196.1 365.9 195.1C366.1 194.1 366.3 193.1 366.5 192.2L367.1 189.2L367.7 186.2L368.3 183.2L368.9 180.2C369.1 179.2 369.3 178.2 369.5 177.3C369.6 176.5 369.8 175.5 370 174.5" fill="#67B1E0"/>
<path d="M370 174.5C370.2 173.5 370.4 172.6 370.6 171.7L371.2 169C371.4 168.1 371.6 167.3 371.8 166.4C372 165.6 372.2 164.7 372.3 163.9L371.1 163.7C370.3 165.1 369.5 166.4 368.6 167.8C367.7 169.2 366.9 170.5 366.1 171.8C365.3 173.1 364.4 174.5 363.6 175.8C362.7 177.1 361.9 178.4 361 179.8C360.1 181.1 359.3 182.4 358.4 183.7C357.5 185 356.6 186.3 355.7 187.7C354.8 189.1 353.9 190.4 353 191.7C352.1 193 351.2 194.4 350.3 195.7L328 225.6L360.3 230.3L363.6 208.7C363.7 207.9 363.9 207.1 364 206.2C364.1 205.4 364.3 204.5 364.4 203.6C364.5 202.7 364.7 201.8 364.9 200.9C365.1 200 365.2 199 365.4 198C365.6 197 365.8 196.1 365.9 195.1C366.1 194.1 366.3 193.1 366.5 192.2L367.1 189.2L367.7 186.2L368.3 183.2L368.9 180.2C369.1 179.2 369.3 178.2 369.5 177.3C369.6 176.5 369.8 175.5 370 174.5M407.7 237.3L427.8 240.2L421.8 278.8L401.8 276L395.3 318.1L347.9 311.6L354.4 269.3L273.3 257.9L278.7 221.7L360.9 118.9L424.7 128.8L407.7 237.3Z" stroke="#11497F" stroke-width="2.5" stroke-miterlimit="10" stroke-linecap="round" stroke-linejoin="round"/>
</svg>
